<?xml version="1.0" encoding="utf-8"?>
<!-- Generator: Adobe Illustrator 27.3.1, SVG Export Plug-In . SVG Version: 6.00 Build 0)  -->
<svg version="1.1" id="Camada_1" xmlns="http://www.w3.org/2000/svg" xmlns:xlink="http://www.w3.org/1999/xlink" x="0px" y="0px"
	 viewBox="0 0 277 507" style="enable-background:new 0 0 277 507;" xml:space="preserve">
<style type="text/css">
	.st0{fill:none;}
	.st1{fill:url(#SVGID_1_);}
	.st2{fill:url(#SVGID_00000039831995316426295610000017841724504556075913_);}
	.st3{fill:url(#SVGID_00000015328322512024274040000016782790608110811815_);}
</style>
<g>
	<path class="st0" d="M259.8,149.7c-15.2,6.8-33.7,7.9-47.9,1.8c-14.2-6.4-24.1-19.7-35.7-30.4c-11.4-10.7-24.3-18.4-37-31.1
		c-12.9-12.9-25.3-30.6-18.7-41.5c6.6-11.1,32.2-15.4,49.4-26.8C179.1,15.6,186,7.6,192.8,0h-63.5c-3.2,4.2-6.9,8.3-10.5,12.3
		c-8.8,10-16.9,19.1-27.6,24.2c-10.8,4.9-24,5.7-34,1.3c-10.1-4.6-17.1-14.2-25.4-21.9C25.9,10.2,19.3,5.7,12.6,0H0v84.3
		C4.8,78.9,9.2,73.4,15,70c9.5-5.8,23.1-5.6,32.9,0c9.9,5.5,16,16.5,22.7,26.6c6.8,10.3,14.1,19.8,13.8,29.1
		c-0.5,9.4-8.7,18.4-16.3,26.9c-7.6,8.6-14.6,16.5-23.8,20.8c-9.3,4.2-20.7,4.9-29.3,1.1c-5.8-2.6-10.4-7.2-15-11.9V507h277V138.2
		C271.7,142.8,266,146.8,259.8,149.7z"/>
	
		<linearGradient id="SVGID_1_" gradientUnits="userSpaceOnUse" x1="-153.4317" y1="245.2893" x2="50.2137" y2="424.8956" gradientTransform="matrix(-4.690415e-07 1 1 4.690415e-07 -110.8777 115.0439)">
		<stop  offset="0" style="stop-color:#3790F8"/>
		<stop  offset="1" style="stop-color:#FBA81F"/>
	</linearGradient>
	<path class="st1" d="M169.9,21.7c-17.2,11.3-42.8,15.7-49.4,26.8c-6.6,10.9,5.8,28.6,18.7,41.5c12.7,12.7,25.6,20.4,37,31.1
		c11.6,10.7,21.5,24.1,35.7,30.4c14.2,6.1,32.7,5,47.9-1.8c6.2-2.9,11.9-6.9,17.2-11.5V0h-84.2C186,7.6,179.1,15.6,169.9,21.7z"/>
	
		<linearGradient id="SVGID_00000111890583399292851230000007069613926666554047_" gradientUnits="userSpaceOnUse" x1="-204.3539" y1="102.0483" x2="-59.2543" y2="231.6654" gradientTransform="matrix(-4.690415e-07 1 1 4.690415e-07 -110.8777 115.0439)">
		<stop  offset="0" style="stop-color:#3790F8"/>
		<stop  offset="1" style="stop-color:#FBA81F"/>
	</linearGradient>
	<path style="fill:url(#SVGID_00000111890583399292851230000007069613926666554047_);" d="M57.2,37.8c10.1,4.4,23.2,3.6,34-1.3
		c10.6-5.1,18.7-14.2,27.6-24.2c3.6-4,7.3-8.1,10.5-12.3H12.6c6.7,5.7,13.2,10.2,19.2,15.9C40.1,23.6,47.2,33.2,57.2,37.8z"/>
	
		<linearGradient id="SVGID_00000086658679701473393550000004621272415846463148_" gradientUnits="userSpaceOnUse" x1="-60.5631" y1="81.0086" x2="64.4827" y2="192.3985" gradientTransform="matrix(-4.690415e-07 1 1 4.690415e-07 -110.8777 115.0439)">
		<stop  offset="0" style="stop-color:#3790F8"/>
		<stop  offset="1" style="stop-color:#FBA81F"/>
	</linearGradient>
	<path style="fill:url(#SVGID_00000086658679701473393550000004621272415846463148_);" d="M15,174.5c8.7,3.8,20,3.1,29.3-1.1
		c9.2-4.4,16.1-12.2,23.8-20.8c7.6-8.4,15.8-17.4,16.3-26.9c0.3-9.3-7-18.8-13.8-29.1C63.9,86.5,57.9,75.5,47.9,70
		c-9.8-5.6-23.4-5.8-32.9,0C9.2,73.4,4.8,78.9,0,84.3v78.3C4.6,167.3,9.2,171.9,15,174.5z"/>
</g>
</svg>
