<?xml version="1.0" encoding="utf-8"?>
<!-- Generator: Adobe Illustrator 27.3.1, SVG Export Plug-In . SVG Version: 6.00 Build 0)  -->
<svg version="1.1" id="Camada_1" xmlns="http://www.w3.org/2000/svg" xmlns:xlink="http://www.w3.org/1999/xlink" x="0px" y="0px"
	 viewBox="0 0 507 277" style="enable-background:new 0 0 507 277;" xml:space="preserve">
<style type="text/css">
	.st0{fill:none;}
	.st1{fill:url(#SVGID_1_);}
	.st2{fill:url(#SVGID_00000102536014395677495020000000870235935892982194_);}
	.st3{fill:url(#SVGID_00000102521015017878804950000000467390763538712251_);}
</style>
<g>
	<path class="st0" d="M135.1,0c4.5,4.9,8.3,10,11.1,15.7c6.7,14,7.8,31.1,1.8,44.2c-6.2,13.1-19.4,22.2-29.9,33
		c-10.5,10.5-18.1,22.4-30.6,34.1c-12.7,11.9-30.1,23.4-40.8,17.3c-10.9-6.1-15.2-29.7-26.3-45.6C14.8,90.6,7.2,84.4,0,78.3v66.8
		c1.6,1.4,3.2,2.8,4.8,4.3c10.7,9.3,20.4,17.8,25.8,29c5.2,11.4,6.1,25.2,1.4,35.9c-4.9,10.6-15.2,18-23.4,26.7
		c-3.1,3.2-5.9,6.6-8.7,10.1V277h68.3c-1.9-1.9-3.7-3.9-5.1-6.1c-5.7-8.7-5.5-21.4,0-30.4c5.4-9.2,16.2-14.8,26.1-20.9
		c10.1-6.3,19.5-13,28.6-12.8c9.3,0.4,18.1,8,26.4,15.1c8.4,7,16.2,13.5,20.4,21.9c4.1,8.6,4.8,19.1,1.1,27.1
		c-1.1,2.2-2.4,4.2-4,6.1H507V0H135.1z"/>
	
		<linearGradient id="SVGID_1_" gradientUnits="userSpaceOnUse" x1="-34.4909" y1="145.396" x2="158.5102" y2="315.6145" gradientTransform="matrix(1 0 0 -1 0 278)">
		<stop  offset="0" style="stop-color:#3790F8"/>
		<stop  offset="1" style="stop-color:#FBA81F"/>
	</linearGradient>
	<path class="st1" d="M20.5,98.7c11.2,15.9,15.4,39.5,26.3,45.6c10.7,6.1,28.1-5.4,40.8-17.3c12.5-11.7,20.1-23.6,30.6-34.1
		c10.5-10.8,23.6-19.9,29.9-33c6-13.1,4.9-30.2-1.8-44.2C143.4,10,139.6,4.9,135.1,0H0v78.3C7.2,84.4,14.8,90.6,20.5,98.7z"/>
	
		<linearGradient id="SVGID_00000166677882722479969180000004562976151210442129_" gradientUnits="userSpaceOnUse" x1="-99.9948" y1="-9.4721" x2="53.6685" y2="127.7949" gradientTransform="matrix(1 0 0 -1 0 278)">
		<stop  offset="0" style="stop-color:#3790F8"/>
		<stop  offset="1" style="stop-color:#FBA81F"/>
	</linearGradient>
	<path style="fill:url(#SVGID_00000166677882722479969180000004562976151210442129_);" d="M32.1,214.3c4.7-10.6,3.8-24.5-1.4-35.9
		c-5.4-11.2-15.2-19.7-25.8-29c-1.6-1.4-3.2-2.8-4.8-4.3v106c2.8-3.5,5.6-6.9,8.7-10.1C16.9,232.3,27.2,224.9,32.1,214.3z"/>
	
		<linearGradient id="SVGID_00000080900029904193995380000001143286719345873557_" gradientUnits="userSpaceOnUse" x1="50.5956" y1="-34.9834" x2="169.1054" y2="70.5843" gradientTransform="matrix(1 0 0 -1 0 278)">
		<stop  offset="0" style="stop-color:#3790F8"/>
		<stop  offset="1" style="stop-color:#FBA81F"/>
	</linearGradient>
	<path style="fill:url(#SVGID_00000080900029904193995380000001143286719345873557_);" d="M164.8,243.8c-4.3-8.5-12-14.9-20.4-21.9
		c-8.3-7-17.1-14.6-26.4-15.1c-9.1-0.3-18.5,6.5-28.6,12.8c-9.9,6.2-20.7,11.8-26.1,20.9c-5.5,9-5.7,21.6,0,30.4
		c1.4,2.2,3.1,4.2,5.1,6.1h93.6c1.6-1.9,3-3.9,4-6.1C169.6,262.9,168.9,252.4,164.8,243.8z"/>
</g>
</svg>
