<svg width="27" height="27" viewBox="0 0 27 27" fill="none" xmlns="http://www.w3.org/2000/svg">
<path id="Vector" d="M21.2385 21.276C21.9895 21.276 22.7098 21.5749 23.2408 22.1069C23.7719 22.6389 24.0702 23.3605 24.0702 24.1128C24.0702 24.8652 23.7719 25.5867 23.2408 26.1187C22.7098 26.6507 21.9895 26.9496 21.2385 26.9496C20.4874 26.9496 19.7671 26.6507 19.2361 26.1187C18.705 25.5867 18.4067 24.8652 18.4067 24.1128C18.4067 23.3605 18.705 22.6389 19.2361 22.1069C19.7671 21.5749 20.4874 21.276 21.2385 21.276ZM21.2385 22.6944C20.8629 22.6944 20.5028 22.8439 20.2373 23.1099C19.9717 23.3759 19.8226 23.7366 19.8226 24.1128C19.8226 24.489 19.9717 24.8498 20.2373 25.1158C20.5028 25.3818 20.8629 25.5312 21.2385 25.5312C21.614 25.5312 21.9741 25.3818 22.2396 25.1158C22.5052 24.8498 22.6544 24.489 22.6544 24.1128C22.6544 23.7366 22.5052 23.3759 22.2396 23.1099C21.9741 22.8439 21.614 22.6944 21.2385 22.6944ZM8.49538 21.276C9.24642 21.276 9.9667 21.5749 10.4978 22.1069C11.0288 22.6389 11.3272 23.3605 11.3272 24.1128C11.3272 24.8652 11.0288 25.5867 10.4978 26.1187C9.9667 26.6507 9.24642 26.9496 8.49538 26.9496C7.74434 26.9496 7.02407 26.6507 6.493 26.1187C5.96194 25.5867 5.66359 24.8652 5.66359 24.1128C5.66359 23.3605 5.96194 22.6389 6.493 22.1069C7.02407 21.5749 7.74434 21.276 8.49538 21.276ZM8.49538 22.6944C8.11986 22.6944 7.75972 22.8439 7.49419 23.1099C7.22866 23.3759 7.07948 23.7366 7.07948 24.1128C7.07948 24.489 7.22866 24.8498 7.49419 25.1158C7.75972 25.3818 8.11986 25.5312 8.49538 25.5312C8.8709 25.5312 9.23104 25.3818 9.49657 25.1158C9.7621 24.8498 9.91128 24.489 9.91128 24.1128C9.91128 23.7366 9.7621 23.3759 9.49657 23.1099C9.23104 22.8439 8.8709 22.6944 8.49538 22.6944ZM24.0702 4.2552H4.62998L8.24052 12.7656H19.8226C20.2898 12.7656 20.7004 12.5387 20.9553 12.1982L25.203 6.52464C25.387 6.28352 25.4861 5.98565 25.4861 5.6736C25.4861 5.29742 25.337 4.93665 25.0714 4.67064C24.8059 4.40464 24.4458 4.2552 24.0702 4.2552ZM19.8226 14.184H8.31131L7.22107 16.3967L7.07948 17.0208C7.07948 17.397 7.22866 17.7578 7.49419 18.0238C7.75972 18.2898 8.11986 18.4392 8.49538 18.4392H24.0702V19.8576H8.49538C7.74434 19.8576 7.02407 19.5587 6.493 19.0267C5.96194 18.4947 5.66359 17.7732 5.66359 17.0208C5.66317 16.5395 5.78498 16.0661 6.01756 15.645L7.03701 13.5599L1.8973 1.4184H0V0H2.83179L4.03531 2.8368H24.0702C24.8213 2.8368 25.5416 3.13568 26.0726 3.66768C26.6037 4.19969 26.902 4.92124 26.902 5.6736C26.902 6.3828 26.6613 6.97853 26.2649 7.46079L22.1446 12.9784C21.6349 13.7018 20.7854 14.184 19.8226 14.184Z" fill="black"/>
</svg>
