<svg width="55" height="55" viewBox="0 0 55 55" fill="none" xmlns="http://www.w3.org/2000/svg">
<path id="Menu" d="M3.05556 55H51.9444C53.625 55 55 52.9375 55 50.4167C55 47.8958 53.625 45.8333 51.9444 45.8333H3.05556C1.375 45.8333 0 47.8958 0 50.4167C0 52.9375 1.375 55 3.05556 55ZM3.05556 32.0833H51.9444C53.625 32.0833 55 30.0208 55 27.5C55 24.9792 53.625 22.9167 51.9444 22.9167H3.05556C1.375 22.9167 0 24.9792 0 27.5C0 30.0208 1.375 32.0833 3.05556 32.0833ZM0 4.58333C0 7.10417 1.375 9.16667 3.05556 9.16667H51.9444C53.625 9.16667 55 7.10417 55 4.58333C55 2.0625 53.625 0 51.9444 0H3.05556C1.375 0 0 2.0625 0 4.58333Z" fill="#D9D9D9"/>
</svg>
